<svg fill='grey' xmlns="http://www.w3.org/2000/svg" xmlns:xlink="http://www.w3.org/1999/xlink" version="1.1" x="0px" y="0px" viewBox="0 0 96 120" style="enable-background:new 0 0 96 96;" xml:space="preserve"><g><path d="M83.9,20.5H69.3v-6.2c0-3.3-2.7-6-6-6H32.7c-3.3,0-6,2.7-6,6v6.2H11.1c-5,0-9,4-9,9v49.2c0,5,4,9,9,9h72.8   c5.5,0,10-4.5,10-10V30.5C93.9,25,89.4,20.5,83.9,20.5z M32.7,14.2h30.6v6.2H32.7V14.2z M87.9,77.7c0,2.2-1.8,4-4,4H11.1   c-1.7,0-3-1.3-3-3V29.5c0-1.7,1.3-3,3-3h72.8c2.2,0,4,1.8,4,4V77.7z"/></g></svg>